<?xml version="1.0" encoding="iso-8859-1"?>
<!-- Generator: Adobe Illustrator 19.0.0, SVG Export Plug-In . SVG Version: 6.00 Build 0)  -->
<svg version="1.1" id="Capa_1" xmlns="http://www.w3.org/2000/svg" xmlns:xlink="http://www.w3.org/1999/xlink" x="0px" y="0px"
	 viewBox="0 0 512 512" style="enable-background:new 0 0 512 512;" xml:space="preserve">
<g>
	<g>
		<path d="M186.299,138.189c-1.86-1.86-4.44-2.92-7.07-2.92c-2.64,0-5.21,1.06-7.08,2.92c-1.86,1.86-2.92,4.44-2.92,7.07
			c0,2.64,1.06,5.22,2.92,7.08c1.87,1.86,4.44,2.92,7.08,2.92c2.63,0,5.21-1.06,7.07-2.92c1.86-1.87,2.93-4.44,2.93-7.08
			C189.23,142.629,188.159,140.059,186.299,138.189z"/>
	</g>
</g>
<g>
	<g>
		<path d="M478.527,89.59H372.856V37.967c0-5.523-4.478-10-10-10h-84.688c-5.522,0-10,4.477-10,10V89.59h-20.709l-41.378-57.467
			c-1.879-2.61-4.899-4.157-8.115-4.157c-3.216,0-6.236,1.547-8.115,4.157l-41.379,57.466H33.473C15.016,89.59,0,104.605,0,123.062
			v327.499c0,18.457,15.016,33.473,33.473,33.473h445.054c18.457,0,33.473-15.016,33.473-33.473V123.062
			C512,104.605,496.984,89.59,478.527,89.59z M372.856,238.936c1.001-0.054,2-0.081,2.996-0.081
			c31.338,0,56.834,25.496,56.834,56.833c0,11.989-3.702,23.461-10.706,33.178c-2.12,2.941-2.482,6.8-0.946,10.084
			c1.536,3.284,4.73,5.479,8.347,5.738c18.518,1.322,33.022,16.913,33.022,35.494c0,2.693-0.296,5.342-0.883,7.922h-88.665V238.936z
			 M288.169,47.967h64.687v27.078h-31.775c-5.522,0-10,4.477-10,10s4.478,10,10,10h31.775v34.811h-23.202c-5.522,0-10,4.477-10,10
			c0,5.523,4.478,10,10,10h23.202v34.811h-31.775c-5.522,0-10,4.477-10,10c0,5.523,4.478,10,10,10h31.775v34.811h-23.202
			c-5.522,0-10,4.477-10,10s4.478,10,10,10h23.202v34.811h-31.775c-5.522,0-10,4.477-10,10c0,5.523,4.478,10,10,10h31.775v34.811
			h-23.202c-5.522,0-10,4.477-10,10c0,5.523,4.478,10,10,10h23.202v19.006h-64.687V47.967z M256.787,109.589h11.381v43.851
			c-3.785-0.417-7.587-0.633-11.381-0.66V109.589z M268.169,173.588v214.519h-11.381v-0.001V172.773
			C260.583,172.807,264.389,173.08,268.169,173.588z M197.966,55.08l30.45,42.288h-60.899L197.966,55.08z M236.787,117.368v270.738
			h-10.082V117.368H236.787z M159.144,230.138v-112.77h47.561v270.738h-17.479V185.467c0-5.523-4.477-10-10-10
			c-5.523,0-10,4.477-10,10v202.639h-10.082V230.138z M20,123.062c0-7.429,6.044-13.473,13.473-13.473h105.671v109.34
			c-1-0.04-2-0.074-2.997-0.074c-42.366,0-76.833,34.467-76.833,76.833c0,11.254,2.413,22.173,7.058,32.195
			c-21.49,7.778-36.774,28.463-36.774,52.299c0,2.672,0.197,5.314,0.57,7.922H20V123.062z M49.596,380.184
			c0-18.582,14.505-34.172,33.022-35.494c3.617-0.258,6.81-2.454,8.346-5.738s1.174-7.143-0.946-10.084
			c-7.003-9.717-10.706-21.19-10.706-33.178c0-31.338,25.495-56.833,56.833-56.833c0.996,0,1.996,0.027,2.997,0.081v149.17H50.479
			v-0.001C49.892,385.526,49.596,382.877,49.596,380.184z M492,408.106v42.455c0,7.429-6.044,13.473-13.473,13.473H33.473
			c-7.429,0-13.473-6.044-13.473-13.473v-42.455L492,408.106L492,408.106z M492,388.107h-10.166c0.373-2.608,0.57-5.25,0.57-7.922
			c0-23.835-15.284-44.521-36.774-52.299c4.645-10.022,7.058-20.941,7.058-32.195c0-42.366-34.468-76.833-76.834-76.833
			c-0.997,0-1.996,0.035-2.996,0.074V109.59h105.67c7.429,0,13.473,6.044,13.473,13.473V388.107z"/>
	</g>
</g>
<g>
	<g>
		<path d="M475.711,434.001c-0.13-0.64-0.32-1.27-0.57-1.87c-0.25-0.61-0.56-1.19-0.92-1.73c-0.36-0.55-0.78-1.06-1.24-1.52
			c-0.46-0.46-0.979-0.88-1.52-1.24c-0.55-0.36-1.13-0.67-1.73-0.92c-0.6-0.25-1.229-0.44-1.87-0.57c-1.29-0.26-2.619-0.26-3.909,0
			c-0.641,0.13-1.261,0.32-1.87,0.57c-0.601,0.25-1.181,0.56-1.73,0.92c-0.54,0.36-1.05,0.78-1.51,1.24
			c-0.47,0.46-0.88,0.97-1.25,1.52c-0.36,0.54-0.67,1.12-0.92,1.73c-0.25,0.6-0.44,1.23-0.57,1.87s-0.2,1.3-0.2,1.95
			s0.07,1.31,0.2,1.96c0.13,0.63,0.32,1.26,0.57,1.87c0.25,0.6,0.56,1.18,0.92,1.72c0.37,0.55,0.78,1.06,1.25,1.52
			c0.46,0.46,0.97,0.88,1.51,1.25c0.55,0.36,1.13,0.67,1.73,0.92c0.609,0.25,1.229,0.44,1.87,0.57c0.649,0.13,1.3,0.19,1.96,0.19
			c0.649,0,1.31-0.06,1.949-0.19c0.641-0.13,1.271-0.32,1.87-0.57c0.601-0.25,1.181-0.56,1.73-0.92c0.54-0.37,1.06-0.79,1.52-1.25
			c0.46-0.46,0.88-0.97,1.24-1.52c0.36-0.54,0.67-1.12,0.92-1.72c0.25-0.61,0.44-1.24,0.57-1.87c0.13-0.65,0.2-1.31,0.2-1.96
			C475.911,435.301,475.841,434.641,475.711,434.001z"/>
	</g>
</g>
<g>
	<g>
		<path d="M427.862,425.953H51.192c-5.523,0-10,4.477-10,10c0,5.523,4.477,10,10,10h376.669c5.522,0,10-4.477,10-10
			C437.862,430.43,433.384,425.953,427.862,425.953z"/>
	</g>
</g>
<g>
</g>
<g>
</g>
<g>
</g>
<g>
</g>
<g>
</g>
<g>
</g>
<g>
</g>
<g>
</g>
<g>
</g>
<g>
</g>
<g>
</g>
<g>
</g>
<g>
</g>
<g>
</g>
<g>
</g>
</svg>
