<?xml version="1.0" encoding="iso-8859-1"?>
<!-- Generator: Adobe Illustrator 19.0.0, SVG Export Plug-In . SVG Version: 6.00 Build 0)  -->
<svg version="1.1" id="Capa_1" xmlns="http://www.w3.org/2000/svg" xmlns:xlink="http://www.w3.org/1999/xlink" x="0px" y="0px"
	 viewBox="0 0 512 512" style="enable-background:new 0 0 512 512;" xml:space="preserve">
<g>
	<g>
		<path d="M478.535,59.387h-38.538V18.271c0-5.522-4.478-10-10-10H82.003c-5.522,0-10,4.478-10,10v41.115H33.465
			C15.013,59.387,0,74.398,0,92.851v377.414c0,18.452,15.013,33.464,33.465,33.464h445.07c18.452,0,33.465-15.012,33.465-33.464
			V92.851C512,74.398,496.987,59.387,478.535,59.387z M92.003,28.271h327.994v228.28H92.003V28.271z M82.003,276.552h347.994
			c5.522,0,10-4.478,10-10V119.419h11.971V407.83H60.032V119.419h11.971v147.133C72.003,272.074,76.48,276.552,82.003,276.552z
			 M20,92.851c0-7.424,6.04-13.464,13.465-13.464h38.538v20.032H50.032c-5.522,0-10,4.478-10,10V407.83H20V92.851z M492,470.265
			c0,7.424-6.04,13.464-13.465,13.464H33.465c-7.425,0-13.465-6.04-13.465-13.464V427.83h472V470.265z M492,407.83h-20.032V109.419
			c0-5.522-4.478-10-10-10h-21.971V79.387h38.538c7.425,0,13.465,6.04,13.465,13.464V407.83z"/>
	</g>
</g>
<g>
	<g>
		<path d="M368.219,453.71c-0.129-0.641-0.32-1.271-0.57-1.87c-0.25-0.61-0.56-1.19-0.92-1.73c-0.37-0.55-0.79-1.06-1.25-1.52
			c-0.46-0.46-0.97-0.88-1.52-1.24c-0.54-0.359-1.12-0.67-1.72-0.92c-0.61-0.25-1.24-0.439-1.87-0.57c-1.29-0.26-2.62-0.26-3.91,0
			c-0.641,0.131-1.271,0.32-1.87,0.57c-0.61,0.25-1.19,0.561-1.73,0.92c-0.55,0.36-1.06,0.78-1.52,1.24
			c-0.46,0.46-0.88,0.97-1.24,1.52c-0.359,0.54-0.67,1.12-0.92,1.73c-0.25,0.6-0.45,1.229-0.57,1.87
			c-0.13,0.64-0.199,1.3-0.199,1.95c0,0.649,0.069,1.31,0.199,1.96c0.131,0.63,0.32,1.26,0.57,1.87c0.25,0.6,0.561,1.18,0.92,1.72
			c0.36,0.55,0.78,1.06,1.24,1.52c0.46,0.46,0.97,0.88,1.52,1.25c0.54,0.36,1.12,0.67,1.73,0.92c0.6,0.25,1.229,0.44,1.87,0.57
			c0.64,0.13,1.3,0.19,1.95,0.19c0.649,0,1.31-0.061,1.96-0.19c0.63-0.13,1.26-0.32,1.87-0.57c0.6-0.25,1.18-0.56,1.72-0.92
			c0.55-0.37,1.06-0.79,1.52-1.25c0.46-0.46,0.88-0.97,1.25-1.52c0.36-0.54,0.67-1.12,0.92-1.72c0.25-0.61,0.44-1.24,0.57-1.87
			c0.13-0.65,0.19-1.311,0.19-1.96C368.409,455.01,368.348,454.349,368.219,453.71z"/>
	</g>
</g>
<g>
	<g>
		<path d="M320.38,445.662H153.588c-5.522,0-10,4.478-10,10c0,5.522,4.478,10,10,10H320.38c5.522,0,10-4.478,10-10
			C330.38,450.14,325.902,445.662,320.38,445.662z"/>
	</g>
</g>
<g>
	<g>
		<path d="M176.375,293.556H82.003c-5.522,0-10,4.478-10,10v72.054c0,5.522,4.478,10,10,10h94.372c5.522,0,10-4.478,10-10v-72.054
			C186.375,298.034,181.897,293.556,176.375,293.556z M166.375,365.611H92.003v-52.054h74.372V365.611z"/>
	</g>
</g>
<g>
	<g>
		<path d="M303.186,293.556h-94.373c-5.522,0-10,4.478-10,10v72.054c0,5.523,4.478,10,10,10h94.373c5.522,0,10-4.478,10-10v-72.054
			C313.186,298.034,308.708,293.556,303.186,293.556z M293.186,365.611h-74.373v-52.054h74.373V365.611z"/>
	</g>
</g>
<g>
	<g>
		<path d="M429.997,293.556h-94.372c-5.522,0-10,4.478-10,10v72.054c0,5.523,4.478,10,10,10h94.372c5.522,0,10-4.478,10-10v-72.054
			C439.997,298.034,435.519,293.556,429.997,293.556z M419.997,365.611h-74.372v-52.054h74.372V365.611z"/>
	</g>
</g>
<g>
	<g>
		<path d="M163.946,165.941h-42.563c-5.522,0-10,4.478-10,10v45.643c0,5.522,4.477,10,10,10h42.563c5.522,0,10-4.478,10-10v-45.643
			C173.946,170.419,169.468,165.941,163.946,165.941z M153.946,211.584h-22.563v-25.643h22.563V211.584z"/>
	</g>
</g>
<g>
	<g>
		<path d="M390.617,108.427h-42.563c-5.523,0-10,4.477-10,10v103.157c0,5.522,4.478,10,10,10h42.563c5.522,0,10-4.478,10-10V118.427
			C400.617,112.905,396.139,108.427,390.617,108.427z M380.617,211.584h-22.563v-83.157h22.563V211.584z"/>
	</g>
</g>
<g>
	<g>
		<path d="M240.506,127.919h-44.569c-5.522,0-10,4.478-10,10v83.67c0,5.522,4.478,10,10,10h44.569c5.522,0,10-4.478,10-10v-83.67
			C250.506,132.396,246.028,127.919,240.506,127.919z M230.506,211.589h-24.569v-63.67h24.569V211.589z"/>
	</g>
</g>
<g>
	<g>
		<path d="M315.061,149.945h-42.563c-5.522,0-10,4.478-10,10v61.639c0,5.522,4.478,10,10,10h42.563c5.522,0,10-4.478,10-10v-61.639
			C325.061,154.423,320.583,149.945,315.061,149.945z M305.061,211.584h-22.563v-41.639h22.563V211.584z"/>
	</g>
</g>
<g>
	<g>
		<path d="M376.384,41.275c-3.918-3.891-10.248-3.87-14.143,0.047l-69.51,69.975L224.11,61.304
			c-3.802-2.769-9.018-2.517-12.532,0.609l-50.051,44.49c-4.128,3.669-4.5,9.989-0.83,14.117c3.667,4.127,9.991,4.501,14.117,0.831
			l44.03-39.138l69.045,50.302c1.767,1.286,3.831,1.917,5.886,1.917c2.587,0,5.158-1,7.098-2.952l75.558-76.062
			C380.323,51.499,380.302,45.168,376.384,41.275z"/>
	</g>
</g>
<g>
	<g>
		<path d="M152.47,134.6c-0.13-0.64-0.32-1.27-0.57-1.87c-0.25-0.609-0.56-1.189-0.92-1.729c-0.37-0.55-0.779-1.061-1.25-1.521
			c-0.46-0.46-0.97-0.88-1.52-1.25c-0.54-0.359-1.12-0.67-1.72-0.92c-0.601-0.25-1.23-0.439-1.87-0.569
			c-1.29-0.261-2.62-0.261-3.91,0c-0.641,0.13-1.271,0.319-1.87,0.569s-1.19,0.561-1.73,0.92c-0.55,0.37-1.06,0.79-1.52,1.25
			c-0.46,0.46-0.88,0.971-1.24,1.521c-0.359,0.54-0.67,1.12-0.92,1.729c-0.25,0.601-0.439,1.23-0.57,1.87
			c-0.13,0.641-0.199,1.3-0.199,1.95c0,2.63,1.069,5.21,2.93,7.07c0.459,0.46,0.969,0.88,1.518,1.239
			c0.54,0.36,1.131,0.671,1.73,0.921s1.229,0.449,1.87,0.579c0.64,0.12,1.3,0.19,1.95,0.19c0.659,0,1.31-0.07,1.96-0.19
			c0.64-0.13,1.27-0.329,1.87-0.579c0.6-0.25,1.18-0.561,1.72-0.921c0.55-0.359,1.06-0.779,1.52-1.239
			c1.87-1.86,2.931-4.44,2.931-7.07C152.66,135.9,152.599,135.24,152.47,134.6z"/>
	</g>
</g>
<g>
</g>
<g>
</g>
<g>
</g>
<g>
</g>
<g>
</g>
<g>
</g>
<g>
</g>
<g>
</g>
<g>
</g>
<g>
</g>
<g>
</g>
<g>
</g>
<g>
</g>
<g>
</g>
<g>
</g>
</svg>
